<?xml version="1.0" encoding="UTF-8" standalone="no"?>
<svg
   xmlns:dc="http://purl.org/dc/elements/1.1/"
   xmlns:cc="http://creativecommons.org/ns#"
   xmlns:rdf="http://www.w3.org/1999/02/22-rdf-syntax-ns#"
   xmlns:svg="http://www.w3.org/2000/svg"
   xmlns="http://www.w3.org/2000/svg"
   xmlns:sodipodi="http://sodipodi.sourceforge.net/DTD/sodipodi-0.dtd"
   xmlns:inkscape="http://www.inkscape.org/namespaces/inkscape"
   width="512"
   height="512"
   viewBox="0 0 135.46666 135.46667"
   version="1.1"
   id="svg866"
   sodipodi:docname="head-favicon.inkscape.svg"
   inkscape:version="1.0 (b51213c273, 2020-08-10)">
  <defs
     id="defs860" />
  <sodipodi:namedview
     id="base"
     pagecolor="#ffffff"
     bordercolor="#666666"
     borderopacity="1.0"
     inkscape:pageopacity="0.0"
     inkscape:pageshadow="2"
     inkscape:zoom="0.35"
     inkscape:cx="361.67339"
     inkscape:cy="382.05195"
     inkscape:document-units="mm"
     inkscape:current-layer="g1483"
     inkscape:document-rotation="0"
     showgrid="false"
     fit-margin-top="0"
     fit-margin-left="0"
     fit-margin-right="0"
     fit-margin-bottom="0"
     inkscape:window-width="1401"
     inkscape:window-height="1043"
     inkscape:window-x="50"
     inkscape:window-y="0"
     inkscape:window-maximized="0"
     units="px" />
  <metadata
     id="metadata863">
    <rdf:RDF>
      <cc:Work
         rdf:about="">
        <dc:format>image/svg+xml</dc:format>
        <dc:type
           rdf:resource="http://purl.org/dc/dcmitype/StillImage" />
        <dc:title></dc:title>
      </cc:Work>
    </rdf:RDF>
  </metadata>
  <g
     inkscape:label="Layer 1"
     inkscape:groupmode="layer"
     id="layer1"
     transform="translate(3.0885834,-47.082088)">
    <g
       id="g1478"
       transform="translate(-0.36715659,1.4225628)">
      <g
         id="g1483"
         transform="translate(9.5589797,9.3386215)">
        <path
           style="fill:none;stroke:#141414;stroke-width:10.3987;stroke-linecap:butt;stroke-linejoin:miter;stroke-miterlimit:4;stroke-dasharray:none;stroke-opacity:1"
           d="m 26.977488,103.29014 c -0.810487,25.51574 3.302512,62.80515 35.80586,55.04782 35.90125,-12.12041 15.383043,-43.19118 17.012898,-55.86448"
           id="path893"
           sodipodi:nodetypes="ccc" />
        <path
           style="fill:none;stroke:#141414;stroke-width:7.79906;stroke-linecap:butt;stroke-linejoin:miter;stroke-miterlimit:4;stroke-dasharray:none;stroke-opacity:1"
           d="m 52.347325,111.80651 c 0.738856,1.77768 5.512216,5.72096 5.512216,5.72096 4.340844,3.79333 2.475621,8.13214 -5.792879,12.43127"
           id="path895"
           sodipodi:nodetypes="csc" />
        <path
           style="fill:none;stroke:#141414;stroke-width:12.132;stroke-linecap:butt;stroke-linejoin:miter;stroke-miterlimit:4;stroke-dasharray:none;stroke-opacity:1"
           d="m 30.147679,127.13508 c 0,0 -33.3608295,-5.88349 -30.50189446,-34.302237 C 0.63434715,81.786081 5.2865304,69.159697 20.538404,72.047856 c 26.372784,11.058866 13.173553,19.20101 13.173553,19.20101 0,0 -10.791767,7.239048 -6.844861,-15.848003 6.006685,-21.957184 27.44165,-26.269389 30.220029,-25.68127 5.814777,-0.641299 14.271234,5.510276 16.229015,9.590762 9.382706,19.555784 -8.034357,27.812021 -11.999629,24.271892 -9.10261,-8.987572 14.007401,-26.42778 39.040629,-15.198689 11.63846,5.967577 7.37727,23.801351 -4.94916,28.836212 -6.45891,2.638195 -16.074192,-2.353279 -14.064436,-7.188431 3.812504,-9.172306 25.294756,-2.427759 29.964166,20.754401 2.11516,12.13001 -18.711108,13.3052 -27.142819,13.2248"
           id="path900"
           sodipodi:nodetypes="ccccccsccsscc" />
      </g>
    </g>
  </g>
</svg>
