<?xml version="1.0" encoding="UTF-8"?>
<svg id="svg866" width="512" height="512" version="1.1" viewBox="0 0 135.47 135.47" xmlns="http://www.w3.org/2000/svg">
 <g id="layer1" transform="translate(3.0886 -47.082)">
  <g id="g1478" transform="translate(-.36716 1.4226)">
   <g id="g1483" transform="translate(9.559 9.3386)" fill="none" stroke="#141414">
    <path id="path893" d="m26.977 103.29c-0.81049 25.516 3.3025 62.805 35.806 55.048 35.901-12.12 15.383-43.191 17.013-55.864" stroke-width="10.399"/>
    <path id="path895" d="m52.347 111.81c0.73886 1.7777 5.5122 5.721 5.5122 5.721 4.3408 3.7933 2.4756 8.1321-5.7929 12.431" stroke-width="7.7991"/>
    <path id="path900" d="m30.148 127.14s-33.361-5.8835-30.502-34.302c0.98856-11.047 5.6407-23.673 20.893-20.785 26.373 11.059 13.174 19.201 13.174 19.201s-10.792 7.239-6.8449-15.848c6.0067-21.957 27.442-26.269 30.22-25.681 5.8148-0.6413 14.271 5.5103 16.229 9.5908 9.3827 19.556-8.0344 27.812-12 24.272-9.1026-8.9876 14.007-26.428 39.041-15.199 11.638 5.9676 7.3773 23.801-4.9492 28.836-6.4589 2.6382-16.074-2.3533-14.064-7.1884 3.8125-9.1723 25.295-2.4278 29.964 20.754 2.1152 12.13-18.711 13.305-27.143 13.225" stroke-width="12.132"/>
   </g>
  </g>
 </g>
</svg>
